<?xml version="1.0" encoding="utf-8"?>
<!-- Generator: Adobe Illustrator 22.0.1, SVG Export Plug-In . SVG Version: 6.00 Build 0)  -->
<!DOCTYPE svg PUBLIC "-//W3C//DTD SVG 1.1//EN" "http://www.w3.org/Graphics/SVG/1.1/DTD/svg11.dtd">
<svg version="1.1" id="Layer_1" xmlns="http://www.w3.org/2000/svg" xmlns:xlink="http://www.w3.org/1999/xlink" x="0px" y="0px"
	 viewBox="0 0 3730 1875" style="enable-background:new 0 0 3730 1875;" xml:space="preserve">
<style type="text/css">
	.st0{fill:url(#SVGID_1_);}
	.st1{opacity:0.2;fill:#FFFFFF;stroke:#9987BA;stroke-miterlimit:10;}
	.st2{fill:#887CA3;}
	.st3{fill:#A998B4;}
	.st4{fill:#FFFFFF;}
	.st5{fill:#FFD1C3;}
	.st6{fill:#5D5D90;}
	.st7{fill:none;stroke:#4E4E82;stroke-width:3;stroke-miterlimit:10;}
	.st8{opacity:0.5;}
	.st9{fill:none;stroke:#FFD1C3;stroke-width:3;stroke-miterlimit:10;}
	.st10{opacity:0.4;}
	.st11{fill:#FFFFFF;stroke:#9987BA;stroke-miterlimit:10;}
	.st12{opacity:0.5;fill:none;stroke:#5D5D90;stroke-width:3;stroke-miterlimit:10;}
	.st13{fill:none;stroke:#FFE8DC;stroke-width:3;stroke-miterlimit:10;}
	.st14{clip-path:url(#SVGID_2_);fill:url(#SVGID_3_);}
	.st15{opacity:0.1;fill:#7C74B8;}
	.st16{fill:#2B2E4B;}
</style>
<linearGradient id="SVGID_1_" gradientUnits="userSpaceOnUse" x1="1864" y1="1559.5624" x2="1870.8121" y2="-18.6378">
	<stop  offset="0" style="stop-color:#FDC9C7"/>
	<stop  offset="0.3139" style="stop-color:#C2A2C0"/>
	<stop  offset="0.6306" style="stop-color:#8E80BA"/>
	<stop  offset="0.8691" style="stop-color:#6D6AB6"/>
	<stop  offset="1" style="stop-color:#6162B5"/>
</linearGradient>
<polygon class="st0" points="3747.9,819.5 3747.9,1551.5 3746.9,1551.5 3746.9,1552.5 -13.1,1551.5 -13.1,-10.5 3746.9,-10.5 
	3746.9,820.4 "/>
<polygon class="st1" points="3747.9,819.5 3747.9,1466.8 3746.9,1467.5 3619.8,1551.5 3618.3,1552.5 2408.2,1552.5 2407.1,1544.4 
	2406.3,1538.9 2348.5,1134.7 2330,1005.5 2442.5,950.3 2493.9,930.8 2523.1,935 2582.1,936.3 2676.3,906.7 2708.9,890.7 
	2754.9,889.4 2800.1,895.2 2878.3,867.9 2920.6,843.7 2936.5,837.3 2986.6,841.9 3029,817.7 3049.4,796.1 3085.7,773 3116.6,734.2 
	3129.1,716.8 3186.8,704.2 3238.9,704.7 3280.6,696.5 3353.4,686.5 3414.4,684.8 3492.5,651.5 3553.3,610.8 3571.7,554.3 
	3635.3,502.4 3665.4,397.5 3737.4,361.5 3746.9,384.6 3746.9,820.4 "/>
<path class="st1" d="M2123.5,946.1l-4.8,214.3l-8.5,384.1l-0.2,8h-816.1c-15.6-2.5-31.4-5.2-47.2-8
	c-80.1-14.5-162.2-33.6-247.2-57.4c-37.6-10.6-75.2-21.9-112.6-33.7c-0.4-0.1-0.7-0.2-1.1-0.4c-21-6.7-42-13.5-63-20.5
	c-39.5-13.2-78.8-26.9-117.8-40.9l-119.4-7.8l-598.7-38.8V203.8l19.6-2.9l33.8,46.8l55.4,3.6L213.2,288l-26.5,99.8l27.2,18.7
	L282,517l41.8-0.4l35.5,45.4l-1.8,27.5l34.1,16l58.1,33l63.8,34.6l30.7-22.3l64.7,8.8l18.9,44.3l53,26.5l37.6,20.9l44.3,13.6
	l88.1,59.5l68.8,22.9l31.1,4.4l82,19l33.1,31.4l55.1,15.2l49.9-8.4l50.2,24.8l19.1,15.1l37.2-6.8l87.4-7.1l123.4,18.4l90,14.4
	l133.6-2.5l94.7,5l28.3,15.1l23.4-12.4l82.6,4.4l87-26.6l38.3,12.3l25.1-9.7l32.2-7.1L2123.5,946.1z"/>
<g>
	<polygon class="st2" points="3187.2,1142.2 3179,1217.3 2728.3,1217.3 2719.7,1207.8 2676.6,1192.2 2628.7,1181.7 2576.6,1148.1 
		2537.8,1125.2 2483.8,1113.4 2455.9,1094.1 2419.5,1084.8 2379.5,1078.6 2367.3,1073.6 2349.1,1067.4 2292.1,1067.4 2277.1,1065 
		2320,1040.1 2397.6,1052.5 2428.6,1052.5 2470.4,1055 2470.7,1054.4 2477.7,1040.1 2482,1009 2499.5,992.9 2515.9,968.7 
		2515.9,956.2 2543.8,964.9 2568.7,981.1 2579.2,985.3 2579.2,985.3 2592.3,991 2623.3,1000.9 2629.3,1002.8 2656.6,1013.4 
		2656.6,1019 2676.2,1025.2 2685.7,1028.3 2705.7,1030.3 2705.8,1030.3 2729.4,1032.6 2741.5,1027 2765.8,1053.1 2777.9,1069.3 
		2807.7,1086.7 2825.8,1093.5 2867.7,1097.8 2901.7,1104.7 2918.6,1106.5 2964.1,1127.7 2991.4,1146.3 3061.8,1163.1 3118.8,1168 	
		"/>
	<polygon class="st3" points="2544.9,1021.6 2515.9,1044.4 2470.9,1054.9 2470.7,1054.4 2477.7,1040.1 2482,1009 2499.5,992.9 
		2515.9,968.7 2515.9,956.3 2533.5,972.1 2533.5,1000 	"/>
</g>
<polygon class="st4" points="3747.9,1336.5 3747.9,819.5 3746.9,820.4 3726.9,838.5 3669.9,861.5 3629.9,882.5 3598.9,930.5 
	3537.9,957.5 3489.9,981.5 3354.9,984.5 3303.9,1008.5 3222.9,1002.5 3177.9,1023.5 3079.9,1029.5 3053.9,1026.5 2999,1032.7 
	2931.9,1053.5 2829.9,1042.5 2829.9,1042.5 2784.7,1036.4 2709.5,1027 2652.6,1047.8 2628.2,1057.2 2521.6,1087.4 2451.5,1113.9 
	2395.6,1125.2 2376.3,1140.3 2355,1130.9 2348.5,1134.7 2338.8,1140.3 2305.2,1140.3 2188.4,1179.1 2118.8,1160.4 1820.5,1080.4 
	1597.6,1041.7 1466.3,1035.7 1453.1,1026.2 1409.4,1026.2 1360.6,1014.9 1299.7,990.3 1147.3,990.3 1142.3,977.1 1062,977.1 
	1062,970.5 1022.4,955.4 949.3,964.8 942.2,955.4 921.9,955.4 912.7,964.8 885.3,954.2 885.3,954.4 789.9,950.5 765.9,936.5 
	693.9,930.5 645.9,918.5 587.9,926.5 531.9,940.5 475.9,910.5 439.9,892.5 387.9,852.5 349.9,862.5 273.9,840.5 149.9,785.5 
	5.9,778.5 -13.1,777.3 -16.3,1336.5 -21,1336.5 -21,1876.5 3749,1876.5 3749,1336.5 "/>
<g>
	<path class="st5" d="M2244,743.1v12.7l-21.4,14.2l-7.9,22.9l-6.3,15l1.6,18.2l-13.5,11.9v14.2l-0.8,28.5l-4.8,29.3l11.1,11.1
		l8.7,19.8l-19.8,8.7l-8.7,19.8l-22.2,4.8v32.4l-18.2,23.7l-19.8,19l-18.2,29.3L2092,1092l-26.1,26.1l-15,19.8h-9.5l-15.8,7.1
		l-30.9-3h0l-26.1-2.5l-12.5-3.9l-25.5-8v-7.1l-35.6-13.5l-7.9-2.4l-40.4-12.7l-17.2-7.3h0l-0.9-0.4l-5.3-2.3l-2.7-1.1l4-2.9
		l189.1-137.2l-2.4-15l-0.8-20.6c0,0-3.2-18.2,0-15c3.2,3.2,16.6-7.1,16.6-7.1l4.8-18.2l0.8-5.5l6.3-30.1l-6.3-26.9l33.2-8.7
		l15.8-12.7l7.1-19l16.6-1.6l11.9-2.4l-1.6-38v-23.7l9.5-19l7.1-12.7l15.8-19l11.4-9.1l0.5-0.4l19.8,21.4l21.4,7.1v17.4l7.1,9.5
		v20.6l13.5,5.5v16.6L2244,743.1z"/>
	<polygon class="st6" points="2632.5,1229.7 2642.8,1237.6 2642.8,1260.6 2638.1,1268.5 2630.1,1281.9 2622.9,1284.6 2533.6,1317.6 
		2459.2,1311.2 2367.4,1289.9 2331.8,1266.1 2272.4,1239.2 2250.3,1236.8 2206,1228.1 2151.4,1222.6 2127.6,1213.9 2088.9,1191.7 
		2073,1171.2 2041.4,1137.9 2050.9,1137.9 2065.9,1118.1 2092,1092 2103.9,1078.6 2122.1,1049.3 2141.9,1030.3 2160.1,1006.6 
		2160.1,974.1 2182.2,969.4 2190.9,949.6 2210.7,940.9 2202,921.1 2190.9,910 2195.7,880.8 2196.5,852.3 2196.5,838 2209.9,826.2 
		2208.4,808 2214.7,792.9 2222.6,770 2244,755.7 2244,743.1 2221.8,734.4 2221.8,717.7 2208.4,712.2 2208.4,691.6 2201.2,682.1 
		2201.2,664.7 2179.9,657.6 2160.1,636.2 2205.2,644.2 2244,660.8 2244,675 2272.4,688.5 2284.3,695.6 2308.1,712.2 2314.4,728.8 
		2331,728.8 2338.9,762.1 2355.5,769.2 2362.7,788.2 2372.2,816.7 2385.6,822.2 2400.6,852.3 2412.5,862.6 2412.5,899.7 
		2417.3,949.6 2417.3,979.7 2459.2,1012.1 2485.3,1051.7 2520.9,1082.5 2544.7,1090.5 2554.9,1104.7 2568.4,1115.8 2568.4,1132.4 
		2588.2,1145.1 2592.9,1152.2 2642.8,1192.5 2634.9,1210.7 	"/>
	<g>
		<path class="st7" d="M2242.8,795.7c40.4,40.4,80.7,80.7,121.1,121.1"/>
		<path class="st7" d="M2237.3,804.1c33.2,33.2,66.4,66.4,99.6,99.6"/>
		<path class="st7" d="M2241.8,827.2c10.6,10.6,21.3,21.3,31.9,31.9"/>
		<path class="st7" d="M2249.2,851.7c5.9,5.9,11.9,11.9,17.8,17.8"/>
		<path class="st7" d="M2282.6,865.8c0,3.5,0,6.9,0,10.4"/>
		<path class="st7" d="M2301.2,885.1c-7.7,0-15.4,0-23,0"/>
		<path class="st7" d="M2288.6,895.5c5,0,9.9,0,14.9,0"/>
		<path class="st7" d="M2290.8,902.2c4.7,0,9.4,0,14.1,0"/>
		<path class="st7" d="M2202.5,908c23.8,23.8,47.5,47.6,71.3,71.3"/>
		<path class="st7" d="M2236.6,934.9c8.2,7.9,16.3,15.9,24.5,23.8"/>
		<path class="st7" d="M2252.2,934.9c9.4,9.4,18.8,18.8,28.2,28.2"/>
		<path class="st7" d="M2276,975.8c11.4,11.4,22.8,22.8,34.2,34.2"/>
		<path class="st7" d="M2243.2,990.6c-1.7,2.7-4,5-6.6,6.8"/>
		<path class="st7" d="M2248.5,998.8c-4,4-7.9,7.9-11.9,11.9"/>
		<path class="st7" d="M2226.1,835.4c8.4,8.4,16.9,16.8,25.3,25.2"/>
		<path class="st7" d="M2230,828.6c5.4,5.5,10.9,10.9,16.3,16.4"/>
		<path class="st7" d="M2221.6,851.6c-4.4,4.3-8.8,8.5-13.2,12.8"/>
		<path class="st7" d="M2205.4,878.4c6.9,0,13.9,0,20.8,0"/>
		<path class="st7" d="M2208.4,883.6c11.1,0,22.3,0,33.4,0"/>
		<path class="st7" d="M2200.9,891.8c9.4,9.4,18.8,18.8,28.2,28.2"/>
		<path class="st7" d="M2217.3,897.7c7.2,7,14.3,13.9,21.5,20.9"/>
		<path class="st7" d="M2232.1,776.7c5.2,0,10.4,0,15.6,0"/>
		<path class="st7" d="M2391.9,995.1c7.2,7.2,14.4,14.4,21.5,21.5"/>
		<path class="st7" d="M2378.5,1013.7c9.9,9.9,19.8,19.8,29.7,29.7"/>
		<path class="st7" d="M2388.1,1033c8.2,8.2,16.3,16.3,24.5,24.5"/>
		<path class="st7" d="M2420.8,1021.1c4.2,0,8.4,0,12.6,0"/>
		<path class="st7" d="M2422.3,1027.8c10.4,0,20.8,0,31.2,0"/>
		<path class="st7" d="M2419.3,1012.2c7.9,0,15.8,0,23.8,0"/>
		<path class="st7" d="M2448.4,1035.1c8.4,8.4,16.8,16.9,25.2,25.3"/>
		<path class="st7" d="M2443.3,1040.9c8.9,8.9,17.8,17.9,26.7,26.8"/>
		<path class="st7" d="M2420.8,1047.8c7.4,0,14.9,0,22.3,0"/>
		<path class="st7" d="M2429.8,1062.7c5,0,9.9,0,14.9,0"/>
		<path class="st7" d="M2374.8,1103.5c15.8,15.8,31.7,31.7,47.5,47.5"/>
		<path class="st7" d="M2391.9,1105.8c8.9,8.9,17.8,17.8,26.7,26.7"/>
		<path class="st7" d="M2338.3,1067.2c5.8,5.9,11.5,11.8,17.3,17.7"/>
		<path class="st7" d="M2360.7,1073.8c3.2,3.2,6.5,6.4,9.7,9.6"/>
		<path class="st7" d="M2357.7,1024.1c4.5,4.5,8.9,8.9,13.4,13.4"/>
		<path class="st7" d="M2356.2,1049.3c6.9,6.9,13.9,13.9,20.8,20.8"/>
		<path class="st7" d="M2286.4,938.6c11.6,0,23.3,0,34.9,0"/>
		<path class="st7" d="M2313.9,947.5c5,0,9.9,0,14.9,0"/>
		<path class="st7" d="M2317.6,954.2c10.4,0,20.8,0,31.2,0"/>
		<path class="st7" d="M2322.8,967.6c6.2,6,12.4,11.9,18.6,17.9"/>
		<path class="st7" d="M2340.6,963.1c6.2,0,12.4,0,18.6,0"/>
		<path class="st7" d="M2358.4,972c0,5.4,0,10.9,0,16.3"/>
		<path class="st7" d="M2354.7,940.1c7.7,0,15.4,0,23,0"/>
		<path class="st7" d="M2250.7,771.5c6.9,0,13.9,0,20.8,0"/>
		<path class="st7" d="M2258.9,780.4c3,0,5.9,0,8.9,0"/>
		<path class="st7" d="M2267,790c5.2,0,10.4,0,15.6,0"/>
		<path class="st7" d="M2259.6,732.1c5.4,0,10.9,0,16.3,0"/>
		<path class="st7" d="M2277.4,747.7c4.3,3.6,8.3,7.5,11.9,11.8"/>
		<path class="st7" d="M2288.6,743.2c4.2,4.2,8.4,8.4,12.6,12.6"/>
		<path class="st7" d="M2249.2,701.6c7.7,0,15.4,0,23,0"/>
		<path class="st7" d="M2257.4,712.8c4.5,0,8.9,0,13.4,0"/>
		<path class="st7" d="M2306.4,741c3.7,3.7,7.4,7.4,11.1,11.1"/>
		<path class="st7" d="M2329.5,810.1c6.7,0,13.4,0,20.1,0"/>
		<path class="st7" d="M2333.9,816.8c6.7,0,13.4,0,20.1,0"/>
		<path class="st7" d="M2310,813.2c9.4,9.4,18.9,18.7,28.3,28.1"/>
		<path class="st7" d="M2307.9,833.1c9.9,9.9,19.8,19.8,29.7,29.7"/>
		<path class="st7" d="M2255.2,926c15.4,15.4,30.7,30.7,46.1,46.1"/>
		<path class="st7" d="M2330.2,872.5c13.9,0,27.7,0,41.6,0"/>
		<path class="st7" d="M2344.3,882.2c12.9,12.9,25.8,25.8,38.6,38.6"/>
		<path class="st7" d="M2080.6,1146.6c9.4,9.4,18.8,18.8,28.2,28.2"/>
		<path class="st7" d="M2094.7,1150.4c8.2,8.2,16.3,16.3,24.5,24.5"/>
		<path class="st7" d="M2090.2,1126.6c23.8,23.8,47.5,47.5,71.3,71.3"/>
		<path class="st7" d="M2110.3,1102.1c17.8,17.8,35.7,35.7,53.5,53.5"/>
		<path class="st7" d="M2133.3,1106.6c10.4,10.7,20.8,21.3,31.2,32"/>
		<path class="st7" d="M2158.6,1111.7c1.5,1.5,3,3,4.5,4.5"/>
		<path class="st7" d="M2151.9,1091.7c10.6,0,21.3,0,31.9,0"/>
		<path class="st7" d="M2153.4,1082c7.9,0,15.8,0,23.8,0"/>
		<path class="st7" d="M2150.4,1039.7c5.9,5.9,11.9,11.9,17.8,17.8"/>
		<path class="st7" d="M2162.1,1040.6c5.8,5.6,11.5,11.3,17.3,16.9"/>
		<path class="st7" d="M2174.9,1042.6c2.5,2.5,5,5,7.4,7.4"/>
		<path class="st7" d="M2225.4,1032.2c11.4,11.4,22.8,22.8,34.2,34.2"/>
		<path class="st7" d="M2241,1033.7c14.6,14.6,29.2,29.2,43.8,43.8"/>
		<path class="st7" d="M2244.8,1027.8c11.4,11.4,22.8,22.8,34.2,34.2"/>
		<path class="st7" d="M2276.7,1046.3c6.7,6.7,13.4,13.4,20.1,20.1"/>
		<path class="st7" d="M2417.9,1105c9.7,9.7,19.3,19.3,29,29"/>
		<path class="st7" d="M2388.1,1090.9c11.4,0,22.8,0,34.2,0"/>
		<path class="st7" d="M2424.6,1101.3c7.4,0,14.9,0,22.3,0"/>
		<path class="st7" d="M2440.9,1111c10.4,10.4,20.8,20.8,31.2,31.2"/>
		<path class="st7" d="M2463.8,1106.6c9.2,9.1,18.4,18.3,27.5,27.4"/>
		<path class="st7" d="M2278.9,991.4c12.6,12.6,25.3,25.3,37.9,37.9"/>
		<path class="st7" d="M2238.9,957.8c16.1,15.9,32.1,31.8,48.2,47.7"/>
		<path class="st7" d="M2466.3,1087.8c6.2,6.2,12.4,12.4,18.6,18.6"/>
		<path class="st7" d="M2475.1,1108c8.7,8.7,17.3,17.3,26,26"/>
		<path class="st7" d="M2440.9,1149.6c5.9,5.9,11.9,11.9,17.8,17.8"/>
		<path class="st7" d="M2435,1136.2c7.4,7.4,14.9,14.9,22.3,22.3"/>
		<path class="st7" d="M2376.3,978.7c5.9,0,11.9,0,17.8,0"/>
		<path class="st7" d="M2375.5,991.4c2.2,0,4.5,0,6.7,0"/>
		<path class="st7" d="M2364.4,1002.5c0,3.2,0,6.4,0,9.7"/>
		<path class="st7" d="M2334.7,1018.1c4,0,7.9,0,11.9,0"/>
		<path class="st7" d="M2335.4,1026.3c4,3.7,7.9,7.4,11.9,11.1"/>
		<path class="st7" d="M2313.9,1037.4c-4,0-7.9,0-11.9,0"/>
		<path class="st7" d="M2322,1047.1c-5.4,5.4-10.9,10.9-16.3,16.3"/>
		<path class="st7" d="M2328,1058.2c-4.2,4.2-8.4,8.4-12.6,12.6"/>
		<path class="st7" d="M2227.7,1059.7c-4.5,4.5-8.9,8.9-13.4,13.4"/>
		<path class="st7" d="M2229.2,1067.1c-3.5,3.5-6.9,6.9-10.4,10.4"/>
		<path class="st7" d="M2241.8,1082c-3.7,0-7.4,0-11.1,0"/>
		<path class="st7" d="M2267.8,882.2c-3,2.7-5.9,5.4-8.9,8.2"/>
		<path class="st7" d="M2272.2,897c-3.7,0-7.4,0-11.1,0"/>
		<path class="st7" d="M2246.2,787.1c2.7,0,5.4,0,8.2,0"/>
		<path class="st7" d="M2239.6,1093.9c4.7,0,9.4,0,14.1,0"/>
		<path class="st7" d="M2218.3,657.5c3.1,0,6.3,0,9.4,0"/>
		<path class="st7" d="M2222.2,663.5c4,0,7.9,0,11.9,0"/>
		<path class="st7" d="M2297,712c0,4.8,0,9.6,0,14.4"/>
		<path class="st7" d="M2343.1,775.4c4.6,4.6,9.2,9.2,13.9,13.9"/>
		<path class="st7" d="M2341.6,781.9c3.1,3.1,6.3,6.3,9.4,9.4"/>
		<path class="st7" d="M2360.9,799.7c0,3.3,0,6.6,0,9.9"/>
		<path class="st7" d="M2350,831.4c6.9,0,13.9,0,20.8,0"/>
		<path class="st7" d="M2356.4,842.8c6.1,0,12.2,0,18.3,0"/>
		<path class="st7" d="M2351,853.2c-3.4,2.9-6.5,6-9.4,9.4"/>
		<path class="st7" d="M2360.9,851.2c-4,4-7.9,7.9-11.9,11.9"/>
		<path class="st7" d="M2395.1,874c-5,5-9.9,9.9-14.9,14.9"/>
		<path class="st7" d="M2398,882.4c-4.3,4.3-8.6,8.6-12.9,12.9"/>
		<path class="st7" d="M2399,901.2c3,3,5.9,5.9,8.9,8.9"/>
		<path class="st7" d="M2396.5,908.7c2.6,2.8,5.3,5.6,7.9,8.4"/>
		<path class="st7" d="M2302,791.3c-4.6,4.6-9.2,9.2-13.9,13.9"/>
		<path class="st7" d="M2411.9,966.1c0,7.9,0,15.8,0,23.8"/>
		<path class="st7" d="M2390.1,943.3c3.3,3.3,6.6,6.6,9.9,9.9"/>
		<path class="st7" d="M2396.1,938.9c3.1,3.1,6.3,6.3,9.4,9.4"/>
		<path class="st7" d="M2231.1,680.3c0,7.6,0,15.2,0,22.8"/>
		<path class="st7" d="M2239.6,700.6c0,6.3,0,12.5,0,18.8"/>
		<path class="st7" d="M2333.2,1100.6c40.1,40.1,80.2,80.2,120.4,120.4"/>
		<path class="st7" d="M2344.9,1141.6c28.2,28.2,56.5,56.5,84.7,84.7"/>
		<path class="st7" d="M2333.8,1171.2c20.8,20.8,41.5,41.7,62.3,62.5"/>
		<path class="st7" d="M2359.2,1179.3c19,18.9,38,37.8,56.9,56.7"/>
		<path class="st7" d="M2409.8,1191.1c15.6,15.6,31.2,31.2,46.8,46.8"/>
		<path class="st7" d="M2434.8,1184.7c18.3,18.3,36.7,36.6,55,54.9"/>
		<path class="st7" d="M2471.4,1180.1c14.9,14.9,29.7,29.7,44.6,44.6"/>
		<path class="st7" d="M2279.7,1175.6c6.7,0,13.4,0,20.1,0"/>
		<path class="st7" d="M2294.5,1189.7c11.9,0,23.8,0,35.7,0"/>
		<path class="st7" d="M2310.1,1214.2c17.8,0,35.7,0,53.5,0"/>
		<path class="st7" d="M2303.5,1149.6c8.4,0,16.8,0,25.3,0"/>
		<path class="st7" d="M2333.9,1158.5c5.2,0,10.4,0,15.6,0"/>
		<path class="st7" d="M2498.8,1160.8c8.2,8.2,16.3,16.3,24.5,24.5"/>
		<path class="st7" d="M2512.2,1148.9c9.9,0,19.8,0,29.7,0"/>
		<path class="st7" d="M2481.8,1154.1c4,0,7.9,0,11.9,0"/>
		<path class="st7" d="M2480.3,1171.9c7.9,0,15.8,0,23.8,0"/>
		<path class="st7" d="M2483.2,1180.8c7.2,0,14.4,0,21.5,0"/>
		<path class="st7" d="M2252.2,1197.9c19.8,19.8,39.6,39.6,59.4,59.4"/>
		<path class="st7" d="M2273,1201.6c20.1,20.1,40.1,40.1,60.2,60.2"/>
		<path class="st7" d="M2333.9,1230.6c14.4,14.4,28.7,28.7,43.1,43.1"/>
		<path class="st7" d="M2261.8,1145.9c7.7,0,15.4,0,23,0"/>
		<path class="st7" d="M2274.5,1160c6.4,0,12.9,0,19.3,0"/>
		<path class="st7" d="M2433.5,1255.1c-5.9,5.9-11.8,11.8-17.6,17.6"/>
		<path class="st7" d="M2440.9,1258.4c-6.6,6.6-13.1,13.1-19.7,19.7"/>
		<path class="st7" d="M2460.6,1246.9c0,14.5,0,28.9,0,43.4"/>
		<path class="st7" d="M2469.4,1255.1c0,8.4,0,16.7,0,25.1"/>
		<path class="st7" d="M2496.6,1267.3c20.4,20.4,4.6,4.6,24.9,24.9"/>
		<path class="st7" d="M2519,1270.7c11.5,11.5,6.1,6.1,17.6,17.6"/>
		<path class="st7" d="M2544.2,1279.4c9.2,9.1,4.8,4.7,14,13.9"/>
		<path class="st7" d="M2538.6,1255.1c8.6,8.6,17.2,17.2,25.8,25.8"/>
		<path class="st7" d="M2525.1,1241.5c3.6-3.6,7.2-7.2,10.9-10.9"/>
		<path class="st7" d="M2533.2,1240.8c2-2,4.1-4.1,6.1-6.1"/>
		<path class="st7" d="M2542,1246.2c3.1-3.2,6.3-6.4,9.4-9.6"/>
		<path class="st7" d="M2557,1253c2.5-2.5,5-5,7.5-7.5"/>
		<path class="st7" d="M2544.7,1204.2c0,4.5,0,9,0,13.6"/>
		<path class="st7" d="M2550.2,1207.6c0,3.6,0,7.2,0,10.9"/>
		<path class="st7" d="M2556.3,1204.9c0,4.3,0,8.6,0,12.9"/>
		<path class="st7" d="M2565.1,1209.6c0,4.5,0,9,0,13.6"/>
		<path class="st7" d="M2580,1166.2c7.9,7.9,15.8,15.8,23.7,23.7"/>
		<path class="st7" d="M2571.9,1176.4c8.4,8.4,16.7,16.7,25.1,25.1"/>
		<path class="st7" d="M2591,1221.9c6.1-5.9,12.2-11.8,18.2-17.7"/>
		<path class="st7" d="M2611.2,1181.8c0,5.4,0,10.9,0,16.3"/>
		<path class="st7" d="M2619.4,1190.6c0,4.1,0,8.1,0,12.2"/>
		<path class="st7" d="M2596.3,1229.3c7.7,7.7,15.4,15.4,23.1,23.1"/>
		<path class="st7" d="M2611.2,1229.3c8.2,7.6,16.2,15.5,23.7,23.7"/>
		<path class="st7" d="M2600.4,1247.6c5.7,5.6,11.4,11.2,17.1,16.8"/>
		<path class="st7" d="M2599.7,1255.8c4.6,4.7,9.2,9.4,13.8,14.1"/>
		<path class="st7" d="M2500,1093.6c3.2,3.2,6.3,6.3,9.5,9.5"/>
		<path class="st7" d="M2512.9,1092.3c7.9,0,15.8,0,23.7,0"/>
		<path class="st7" d="M2516.9,1103.8c5.9,0,11.8,0,17.6,0"/>
		<path class="st7" d="M2526.4,1114c0,3.8,0,7.7,0,11.5"/>
		<path class="st7" d="M2532.5,1114.6c0,3.2,0,6.3,0,9.5"/>
		<path class="st7" d="M2540,1109.2c4.3,0,8.6,0,12.9,0"/>
		<path class="st7" d="M2546.1,1121.4c0,5.4,0,10.9,0,16.3"/>
		<path class="st7" d="M2531.1,1167c6.3,6.4,12.6,12.7,18.9,19.1"/>
		<path class="st7" d="M2546.8,1171c4.3,0,8.6,0,12.9,0"/>
	</g>
	<g class="st8">
		<path class="st9" d="M2183.6,646.1c4.6,0,9.2,0,13.9,0"/>
		<path class="st9" d="M2189,652.1c5.9,0,11.9,0,17.8,0"/>
		<path class="st9" d="M2206.4,668.4c0,2.3,0,4.6,0,6.9"/>
		<path class="st9" d="M2211.8,684.3c1.2,1,2.3,2,3.5,3"/>
		<path class="st9" d="M2214.3,694.7c0,3.3,0,6.6,0,9.9"/>
		<path class="st9" d="M2220.7,711.5c2.8,2.8,5.6,5.6,8.4,8.4"/>
		<path class="st9" d="M2252.9,748.2c3.5,3.5,6.9,6.9,10.4,10.4"/>
		<path class="st9" d="M2272.7,753.2c6.6,6.6,13.2,13.2,19.8,19.8"/>
		<path class="st9" d="M2274.2,810.1c6.9,6.9,13.9,13.9,20.8,20.8"/>
		<path class="st9" d="M2187.6,989.4c7.6,0,15.2,0,22.8,0"/>
		<path class="st9" d="M2197,978.5c1.3,1.3,2.6,2.6,4,4"/>
		<path class="st9" d="M2203.9,964.6c5.1,5.1,10.2,10.2,15.4,15.4"/>
		<path class="st9" d="M2211.3,961.6c5.8,5.8,11.6,11.6,17.3,17.3"/>
		<path class="st9" d="M2191,999.3c10.2,0,20.5,0,30.7,0"/>
		<path class="st9" d="M2193.5,1008.7c11.4,0,22.8,0,34.2,0"/>
		<path class="st9" d="M2266.8,1001.3c6.8,6.8,13.5,13.5,20.3,20.3"/>
		<path class="st9" d="M2251.9,1014.6c4,0,7.9,0,11.9,0"/>
		<path class="st9" d="M2253.9,1022.6c9.1,0,18.2,0,27.2,0"/>
		<path class="st9" d="M2266.8,1031.5c8.3,0,16.5,0,24.8,0"/>
		<path class="st9" d="M2312.9,983.4c3.8,0,7.6,0,11.4,0"/>
		<path class="st9" d="M2318.8,916.6c5,5,9.9,9.9,14.9,14.9"/>
		<path class="st9" d="M2360.9,949.8c2.3,2.5,4.6,5,6.9,7.4"/>
		<path class="st9" d="M2409.9,935.9c0,4.5,0,8.9,0,13.4"/>
		<path class="st9" d="M2355.5,928.5c6.1,0,12.2,0,18.3,0"/>
		<path class="st9" d="M2375.7,950.3c5.4,5.4,10.7,10.8,16.1,16.1"/>
		<path class="st9" d="M2200.9,1101.3c7.1,0,14.2,0,21.3,0"/>
		<path class="st9" d="M2198.4,1112.2c11.9,0,23.8,0,35.7,0"/>
		<path class="st9" d="M2200.4,1077.1c5,5,9.9,9.9,14.9,14.9"/>
		<path class="st9" d="M2258.9,1081c8.9,8.9,17.8,17.8,26.7,26.7"/>
		<path class="st9" d="M2281.7,1093.9c5,0,9.9,0,14.9,0"/>
		<path class="st9" d="M2297,1101.3c0,9.1,0,18.2,0,27.2"/>
		<path class="st9" d="M2202.4,1132c12.4,12.4,24.8,24.8,37.1,37.1"/>
		<path class="st9" d="M2206.4,1152.3c8.3,8.3,16.5,16.5,24.8,24.8"/>
		<path class="st9" d="M2182.6,1175.1c3.8,4,7.6,7.9,11.4,11.9"/>
		<path class="st9" d="M2165.3,1185c4.8,4.8,9.6,9.6,14.4,14.4"/>
		<path class="st9" d="M2224.2,1193.9c4,4,7.9,7.9,11.9,11.9"/>
		<path class="st9" d="M2136.5,1051.3c-3.1,3.1-6.3,6.3-9.4,9.4"/>
		<path class="st9" d="M2121.2,1068.1c2.5,2.5,5,5,7.4,7.4"/>
		<path class="st9" d="M2118.2,1077.1c2.3,2.3,4.6,4.6,6.9,6.9"/>
		<path class="st9" d="M2111.8,1081c-4.1,4.1-8.3,8.3-12.4,12.4"/>
		<path class="st9" d="M2094.4,1100.8c-1.5,1.5-3,3-4.5,4.5"/>
		<path class="st9" d="M2100.9,1105.3c1.5,1.5,3,3,4.5,4.5"/>
		<path class="st9" d="M2162.3,1019.6c2.6,2.6,5.3,5.3,7.9,7.9"/>
		<path class="st9" d="M2172.2,1016.1c2.8,2.8,5.6,5.6,8.4,8.4"/>
		<path class="st9" d="M2168.7,983.9c0,5,0,9.9,0,14.9"/>
		<path class="st9" d="M2175.2,988.9c0,4.8,0,9.6,0,14.4"/>
		<path class="st9" d="M2187.1,1019.1c7.9,0,15.8,0,23.8,0"/>
		<path class="st9" d="M2187.6,1038.4c7.1,7.1,14.2,14.2,21.3,21.3"/>
		<path class="st9" d="M2200.9,1037.4c5.4,5.4,10.9,10.9,16.3,16.3"/>
		<path class="st9" d="M2203.9,843.3c3.8-3.8,7.6-7.6,11.4-11.4"/>
		<path class="st9" d="M2208.4,850.7c2.3-2.3,4.6-4.6,6.9-6.9"/>
		<path class="st9" d="M2223.7,794.2c0,6.1,0,12.2,0,18.3"/>
		<path class="st9" d="M2261.8,796.7c6.4,0,12.9,0,19.3,0"/>
		<path class="st9" d="M2253.4,906.7c6.8,6.8,13.5,13.5,20.3,20.3"/>
		<path class="st9" d="M2280.7,923.5c5,0,9.9,0,14.9,0"/>
		<path class="st9" d="M2287.6,930.9c9.1,0,18.2,0,27.2,0"/>
		<path class="st9" d="M2260.9,1095.4c5.3,5.3,10.6,10.6,15.8,15.8"/>
		<path class="st9" d="M2257.9,1108.3c7.6,7.6,15.2,15.2,22.8,22.8"/>
		<path class="st9" d="M2301.5,1107.3c0,7.4,0,14.9,0,22.3"/>
		<path class="st9" d="M2288.6,1079.5c10.1,0,20.1,0,30.2,0"/>
		<path class="st9" d="M2303,1085c6.8,0,13.5,0,20.3,0"/>
		<path class="st9" d="M2120.7,1138c9.1,9.1,18.2,18.2,27.2,27.2"/>
		<path class="st9" d="M2136.5,1143.4c12.2,12.2,24.4,24.4,36.7,36.7"/>
		<path class="st9" d="M2061.8,1143.9c7.3-6.9,14.4-14,21.3-21.3"/>
		<path class="st9" d="M2068.1,1149c6.5,6.4,12.9,12.8,19.4,19.2"/>
		<path class="st9" d="M2082.6,1137c2.3,2.3,4.6,4.6,6.9,6.9"/>
		<path class="st9" d="M2097.9,1143.4c8.8,8.8,17.5,17.5,26.3,26.3"/>
		<path class="st9" d="M2101.9,1122.6c4.1,0,8.3,0,12.4,0"/>
		<path class="st9" d="M2384.2,836.3c0,5.4,0,10.9,0,16.3"/>
		<path class="st9" d="M2389.6,846.2c0,5.9,0,11.9,0,17.8"/>
		<path class="st9" d="M2367.8,859.1c5.9,0,11.9,0,17.8,0"/>
		<path class="st9" d="M2406.5,866.1c0,7.8,0,15.5,0,23.3"/>
		<path class="st9" d="M2312.4,769.5c1,1,2,2,3,3"/>
		<path class="st9" d="M2308,776.3c4.5,4.5,9.1,9.1,13.6,13.6"/>
		<path class="st9" d="M2328.2,751.6c0,6.6,0,13.2,0,19.8"/>
		<path class="st9" d="M2369.6,1174.9c7.2,7.2,14.4,14.4,21.5,21.5"/>
		<path class="st9" d="M2374.8,1154.8c4,4,7.9,7.9,11.9,11.9"/>
		<path class="st9" d="M2417.1,1165.2c5.7,0,11.4,0,17.1,0"/>
		<path class="st9" d="M2422.3,1171.9c12.4,0,24.8,0,37.1,0"/>
		<path class="st9" d="M2449.1,1180.8c1.7,0,3.5,0,5.2,0"/>
		<path class="st9" d="M2404.5,1076.8c7.7,0,15.4,0,23,0"/>
		<path class="st9" d="M2375.5,1045.6c3.7,3.7,7.4,7.4,11.1,11.1"/>
		<path class="st9" d="M2383,1041.1c6.1,6,12.2,12,18.3,18.1"/>
		<path class="st9" d="M2449.1,1075.3c3.5,0,6.9,0,10.4,0"/>
		<path class="st9" d="M2452.8,1094.6c1.5,0,3,0,4.5,0"/>
	</g>
	<g class="st10">
		<path class="st11" d="M1918,1047.3c-3.8,3.8-7.6,7.6-11.4,11.4"/>
		<path class="st12" d="M2046.8,813.1c4.8-4.8,9.6-9.6,14.4-14.4"/>
		<path class="st12" d="M2044.5,824.1c7.7-7.8,15.4-15.6,23.2-23.4"/>
		<path class="st12" d="M2042.4,837.8c10.4-10.4,20.8-20.8,31.2-31.2"/>
		<path class="st12" d="M2034.4,858.1c10.6-10.9,21.3-21.6,32.1-32.3"/>
		<path class="st12" d="M2060.7,841.3c1.7,1.2,3.3,2.7,4.5,4.4"/>
		<path class="st12" d="M2066.1,837.8c2,2,4,4,5.9,5.9"/>
		<path class="st12" d="M2072,833.5c2.5,2.4,5,4.9,7.6,7.3"/>
		<path class="st12" d="M2080.5,827.9c1.5,1.7,3,3.3,4.4,5"/>
		<path class="st12" d="M2119.1,696.2c7.8-7.8,15.5-15.5,23.3-23.3"/>
		<path class="st12" d="M2119,704.5c3.5-3.4,7-6.9,10.5-10.3"/>
		<path class="st12" d="M2119.6,713.5c10.1-10.1,20.1-20.1,30.2-30.2"/>
		<path class="st12" d="M2118.1,722.4c9.7-9.7,19.5-19.5,29.2-29.2"/>
		<path class="st12" d="M2120.1,728.9c11.1-11.1,22.1-22.1,33.2-33.2"/>
		<path class="st12" d="M2119.6,738.8c5.9-5.9,11.9-11.9,17.8-17.8"/>
		<path class="st12" d="M2126.1,748.2c2.1,2.1,4.3,4.3,6.4,6.4"/>
		<path class="st12" d="M2128.5,742.7c2.8,2.8,5.6,5.6,8.4,8.4"/>
		<path class="st12" d="M2134.5,739.8c2.5,2.5,5,5,7.4,7.4"/>
		<path class="st12" d="M2140.4,733.3c6.6,6.6,13.2,13.2,19.8,19.8"/>
		<path class="st12" d="M2147.9,727.4c4.8,4.4,9.4,9.1,13.8,13.9"/>
		<path class="st12" d="M2152.8,721.4c1.5,1.5,3,3,4.5,4.5"/>
		<path class="st12" d="M2195.9,698.6c-2.8,2.8-5.6,5.6-8.4,8.4"/>
		<path class="st12" d="M2197,706.2c-3.3,3.3-6.7,6.5-10,9.8"/>
		<path class="st12" d="M2200.8,717.5c-3.3,3.3-6.6,6.6-9.9,9.9"/>
		<path class="st12" d="M2206.3,721.4c-3.8,3.8-7.6,7.6-11.4,11.4"/>
		<path class="st12" d="M2210.8,727.4c-5.8,5.8-11.6,11.6-17.3,17.3"/>
		<path class="st12" d="M2218.6,740.7c-2.8,2.8-5.6,5.7-8.4,8.5"/>
		<path class="st12" d="M2111.2,849.2c-10.9,10.9-21.8,21.8-32.7,32.7"/>
		<path class="st12" d="M2117.6,863.6c-11.7,11.7-23.4,23.4-35.2,35.2"/>
		<path class="st12" d="M2105.7,882.4c-6.6,6.6-13.2,13.2-19.8,19.8"/>
		<path class="st12" d="M2120.2,878c-6.4,6.4-12.9,12.9-19.3,19.3"/>
		<path class="st12" d="M2148.3,832.4c-5.3,5.3-10.6,10.6-15.8,15.8"/>
		<path class="st12" d="M2132.5,941.3c-8.4,8.4-16.8,16.8-25.3,25.3"/>
		<path class="st12" d="M2130.9,951.7c-12.3,12.3-24.7,24.5-37,36.8"/>
		<path class="st12" d="M2140.4,949.3c-5.4,5.4-10.9,10.9-16.3,16.3"/>
		<path class="st12" d="M2143.4,959.7c-6.6,6.6-13.2,13.2-19.8,19.8"/>
		<path class="st12" d="M2019.6,1042.4c3,2.8,5.9,5.6,8.9,8.4"/>
		<path class="st12" d="M2024.5,1038.9c2.1,2.1,4.3,4.3,6.4,6.4"/>
		<path class="st12" d="M2080,1013.1c-8.9,8.9-17.8,17.9-26.7,26.8"/>
		<path class="st12" d="M2093.4,1008.2c-8.6,8.6-17.2,17.2-25.8,25.8"/>
		<path class="st12" d="M2123.6,817.5c-3.5,3.6-6.9,7.3-10.4,10.9"/>
		<path class="st12" d="M2125.1,825.9c-3.3,3.3-6.6,6.6-9.9,9.9"/>
		<path class="st12" d="M2150.8,809.1c-4.3,0-8.6,0-12.9,0"/>
		<path class="st12" d="M2141.4,814.1c5.8,0,11.6,0,17.3,0"/>
		<path class="st12" d="M2144.9,804.1c4.1,0,8.3,0,12.4,0"/>
		<path class="st12" d="M2172.6,787.3c-3.1,3.3-6.3,6.6-9.4,9.9"/>
		<path class="st12" d="M2175.6,791.3c-3.1,3.1-6.3,6.3-9.4,9.4"/>
		<path class="st12" d="M2083.5,803.2c4,0,7.9,0,11.9,0"/>
		<path class="st12" d="M2048.8,852.7c-6.3,6.3-12.5,12.5-18.8,18.8"/>
		<path class="st12" d="M2052.3,860.1c-5.6,5.6-11.2,11.2-16.8,16.8"/>
		<path class="st12" d="M1882.3,1066.1c6.3-6.4,12.6-12.8,18.9-19.3"/>
		<path class="st12" d="M1884.8,1070.6c7.1-7.1,14.2-14.2,21.3-21.3"/>
		<path class="st12" d="M1913.6,1079.5c7.9-7.9,15.8-15.8,23.8-23.8"/>
		<path class="st12" d="M1929.9,1070.6c3.2-3.7,6.7-7.2,10.3-10.5"/>
		<path class="st12" d="M2008.7,1123.6c9.4,0,18.8,0,28.2,0"/>
		<path class="st12" d="M2018.1,1119.2c8.1,0,16.2,0,24.3,0"/>
		<path class="st12" d="M2047.3,1095.4c-4.8,4.8-9.6,9.6-14.4,14.4"/>
		<path class="st12" d="M2054.2,982.5c-5.3,5.3-10.6,10.6-15.8,15.8"/>
		<path class="st12" d="M2062.7,981.5c-3.5,3.5-6.9,6.9-10.4,10.4"/>
		<path class="st12" d="M2059.7,965.1c-9.1,9.1-18.2,18.2-27.2,27.2"/>
		<path class="st12" d="M2156.8,644.2c-6.5,6.5-13,13.1-19.5,19.6"/>
		<path class="st12" d="M2161.7,650.1c3.5,3.5,6.9,6.9,10.4,10.4"/>
		<path class="st12" d="M2158.2,654.6c5.3,5.4,10.7,10.8,16,16.2"/>
		<path class="st12" d="M2155.8,661c6.4,6.4,12.9,12.9,19.3,19.3"/>
		<path class="st12" d="M2189,667c-2.6,2.6-5.3,5.3-7.9,7.9"/>
		<path class="st12" d="M2162.2,681.8c0,3.5,0,6.9,0,10.4"/>
		<path class="st12" d="M2167.2,683.8c0,3.3,0,6.6,0,9.9"/>
		<path class="st12" d="M2160.2,712c4.1-4.1,8.3-8.3,12.4-12.4"/>
		<path class="st12" d="M2164.7,714c4.5-4.5,8.9-8.9,13.4-13.4"/>
		<path class="st12" d="M1953.1,997.7c7.9-7.9,15.8-15.8,23.8-23.8"/>
		<path class="st12" d="M1845,1074.2c2.4,0,4.7,0,7.1,0"/>
		<path class="st12" d="M2129.2,772.2c-2.8,2.8-5.7,5.7-8.5,8.5"/>
		<path class="st12" d="M2134,774.1c-2.2,2.2-4.5,4.5-6.7,6.7"/>
		<path class="st12" d="M2142.2,772.9c8.2,0,16.3,0,24.5,0"/>
		<path class="st12" d="M2091.3,780c-3.2,3.3-6.5,6.7-9.7,10"/>
		<path class="st12" d="M2092.1,786c-3.8,4-7.7,7.9-11.5,11.9"/>
		<path class="st12" d="M2093.1,795.6c6.9,0,13.9,0,20.8,0"/>
		<path class="st12" d="M2101.3,788.9c3.5,0,6.9,0,10.4,0"/>
		<path class="st12" d="M2185.2,872.9c-5.1,0-10.2,0-15.2,0"/>
		<path class="st12" d="M2181.5,878.8c-3.7,0-7.4,0-11.1,0"/>
		<path class="st12" d="M2185.2,885.5c-5.2,0-10.4,0-15.6,0"/>
		<path class="st12" d="M2180.8,848.7c1.5,1.6,3,3.2,4.5,4.8"/>
		<path class="st12" d="M2182.6,841.3c2,2,4,4,5.9,5.9"/>
		<path class="st12" d="M2189.3,824.2c1.5,1.5,3,3,4.5,4.5"/>
		<path class="st12" d="M2194.5,816c2.6,2.6,5.2,5.2,7.8,7.8"/>
		<path class="st12" d="M2217.2,765.2c-2.6,2.6-5.2,5.2-7.8,7.8"/>
		<path class="st12" d="M2215.3,773.3c-3.3,3.4-6.6,6.7-10,10.1"/>
		<path class="st12" d="M2194.5,807.1c1.6,1.6,3.2,3.2,4.8,4.8"/>
		<path class="st12" d="M2194.5,797.1c2.5,2.5,5,5,7.4,7.4"/>
		<path class="st12" d="M2189.3,923c-4.5,4.6-9,9.1-13.4,13.7"/>
		<path class="st12" d="M2190.4,929.3c-3.3,3.3-6.6,6.5-9.9,9.8"/>
		<path class="st12" d="M2196.8,930.4c-3.3,3.3-6.7,6.7-10,10"/>
		<path class="st12" d="M2200.5,934.9c-3.1,3.1-6.2,6.2-9.3,9.3"/>
	</g>
	<path class="st13" d="M2095.6,926.7c-5.9,5.9-11.8,11.8-17.6,17.6"/>
	<path class="st13" d="M2082.1,954.5c6.3-6.3,12.7-12.7,19-19"/>
	<path class="st13" d="M1958.6,1031.2c16.7-16.7,33.5-33.5,50.2-50.2"/>
	<path class="st13" d="M1961.3,1040.7c0,3.4,0,6.8,0,10.2"/>
	<path class="st13" d="M1968.8,1038.7c0,3.8,0,7.7,0,11.5"/>
	<path class="st13" d="M1975.5,1041.4c0,2.7,0,5.4,0,8.1"/>
	<path class="st13" d="M1981.6,1046.8c0,5,0,10,0,14.9"/>
	<path class="st13" d="M1988.4,1038c0,5.2,0,10.4,0,15.6"/>
	<path class="st13" d="M1997.2,1041.4c0,6.8,0,13.6,0,20.4"/>
	<path class="st13" d="M1974.9,999.3c5.9-5.8,11.8-11.7,17.7-17.5"/>
	<path class="st13" d="M1995.8,1024.4c4.3-4.5,8.7-9,13-13.4"/>
	<path class="st13" d="M2049.5,1012.2c-4.1,4.3-8.1,8.6-12.2,12.9"/>
	<path class="st13" d="M2057.4,1068.3c7.3-7.2,14.5-14.4,21.8-21.6"/>
	<path class="st13" d="M2062.4,913.8c-9.5,9.5-19,19-28.5,28.5"/>
	<path class="st13" d="M2130.9,922c6.3-6.3,12.7-12.7,19-19"/>
	<path class="st13" d="M2159.4,917.2c-6.1,6.1-12.2,12.2-18.3,18.3"/>
	<path class="st13" d="M2150.6,953.2c0,5.2,0,10.4,0,15.6"/>
	<path class="st13" d="M2161.4,957.9c1.4-1.4,2.7-2.7,4.1-4.1"/>
	<path class="st13" d="M2016.9,899.2c2.9-2.9,5.8-5.8,8.7-8.7"/>
	<path class="st13" d="M2017.9,907.4c4.1-4.1,8.1-8.1,12.2-12.2"/>
	<path class="st13" d="M2019.5,916c6.4,0,12.9,0,19.3,0"/>
	<path class="st13" d="M2031.1,906.8c3.4-3.4,6.8-6.8,10.2-10.2"/>
	<path class="st13" d="M2021.5,927.7c1.7-1.7,3.4-3.4,5.1-5.1"/>
	<path class="st13" d="M1990,967.4c3.4-3.4,6.8-6.8,10.2-10.2"/>
	<path class="st13" d="M1863.8,1060.5c5.4-5.4,10.9-10.9,16.3-16.3"/>
	<path class="st13" d="M1884.6,1050.9c5.6-5.6,11.2-11.2,16.8-16.8"/>
	<path class="st13" d="M1919.9,1026.1c8.5-8.5,17-16.9,25.5-25.4"/>
	<path class="st13" d="M2102.9,778.6c4.1-4.2,8.2-8.4,12.3-12.7"/>
	<path class="st13" d="M2137,761.9c5.1,0,10.2,0,15.3,0"/>
	<path class="st13" d="M2155.3,766.4c6.8,0,13.6,0,20.4,0"/>
	<path class="st13" d="M2161.4,756.8c7.8,0,15.6,0,23.4,0"/>
	<path class="st13" d="M2130.4,790.4c-7.3,7.3-14.6,14.6-21.9,21.9"/>
	<path class="st13" d="M2128.9,800c-3.9,3.9-7.8,7.8-11.7,11.7"/>
	<path class="st13" d="M2096.8,820.9c0,6.3,0,12.6,0,18.8"/>
	<path class="st13" d="M2103.4,826.5c-1.2,1.2-2.4,2.4-3.6,3.6"/>
	<path class="st13" d="M2153.3,844.8c0,11,0,22,0,33.1"/>
	<path class="st13" d="M2146.2,855c0,11,0,22,0,33.1"/>
	<path class="st13" d="M2138.5,870.2c0,3.7,0,7.5,0,11.2"/>
	<path class="st13" d="M2164.5,818.8c0,5.1,0,10.2,0,15.3"/>
	<path class="st13" d="M2073.9,975.1c7.3-7.4,14.6-14.9,22-22.3"/>
	<path class="st13" d="M2118.7,998.5c0,7.1,0,14.2,0,21.4"/>
	<path class="st13" d="M2125.3,996.9c0,5.6,0,11.2,0,16.8"/>
	<path class="st13" d="M2013.4,1085c6.3-6.3,12.6-12.6,18.8-18.8"/>
	<path class="st13" d="M1955.5,1100.1c9,8.8,17.9,17.7,26.9,26.5"/>
	<path class="st13" d="M1969.1,1103.3c4.4,4.4,8.8,8.8,13.2,13.2"/>
</g>
<g>
	<defs>
		
			<rect id="SVGID_6_" x="-13.1" y="941" transform="matrix(1 4.316222e-03 -4.316222e-03 1 4.942 -8.0217)" width="3748.1" height="399.9"/>
	</defs>
	<clipPath id="SVGID_2_">
		<use xlink:href="#SVGID_6_"  style="overflow:visible;"/>
	</clipPath>
	
		<linearGradient id="SVGID_3_" gradientUnits="userSpaceOnUse" x1="1209.1255" y1="2668.655" x2="1209.1255" y2="2306.3699" gradientTransform="matrix(1.9223 8.296949e-03 -4.764688e-03 1.1038 -451.146 -1480.2706)">
		<stop  offset="0" style="stop-color:#FFFFFF"/>
		<stop  offset="1" style="stop-color:#FFFFFF;stop-opacity:0"/>
	</linearGradient>
	<polygon class="st14" points="3736.1,1083.7 -11.9,1067.5 -13.6,1467.4 3734.4,1483.5 	"/>
</g>
<polygon class="st15" points="2832.8,1461 2780.5,1474.8 2739.2,1469.1 2692,1473.4 2638.4,1477.4 2599.5,1469.2 2563,1462.5 
	2533.9,1463.9 2512.8,1457 2464.4,1461 2444.4,1450.5 2491.3,1426.6 2538.9,1424.2 2587,1404.7 2626.1,1377.4 2689.6,1358.5 
	2702.8,1371.2 2725.4,1370.8 2783.7,1379.7 2840.7,1358.3 2884.9,1382.5 2956.9,1390.5 3010.9,1407.5 3044.9,1432.5 3098.9,1427.5 
	3153.9,1451.5 3186.9,1477.5 3167.9,1486.5 3119.9,1486.5 2993.9,1486.5 2956.9,1465.5 2930.9,1477.5 2918.9,1486.5 2866.9,1468.5 
	"/>
<polygon class="st15" points="859.3,1367.2 952.1,1389.6 1026.3,1385.8 1110.5,1395.5 1206.2,1405.2 1276.2,1397.9 1341.7,1392.5 
	1393.6,1396.7 1431.7,1389.6 1518.1,1399.1 1554.4,1387.2 1471.7,1352.2 1386.7,1344.9 1301.5,1315.5 1232.9,1276.7 1120.3,1246.7 
	1096.1,1262 1055.7,1259.5 951,1266 850.1,1233.3 722.8,1272.1 594,1266.3 499.4,1289.5 414.2,1306.3 352.3,1330 366.2,1353.5 
	420.5,1346.2 528.1,1355.8 610,1396.5 728.5,1376.7 789.5,1407.5 "/>
<polygon class="st15" points="277.9,1084.6 212.6,1095.3 141.6,1094.7 125.7,1094.5 28.4,1098.1 -13.1,1087.6 -13.1,965.4 39,967.4 
	57.4,981.8 111,1023.8 214.4,1055 269.1,1058.8 "/>
<polygon class="st15" points="2956.9,1158.5 3012.9,1131.5 3044.9,1134.5 3068.9,1132.5 3096.9,1128.5 3122.9,1120.5 3170.9,1116.5 
	3186.9,1122.5 3222.9,1136.5 3291.9,1143.5 3348.9,1143.5 3375.9,1164.5 3327.9,1168.5 3278.9,1190.5 3195.9,1173.5 3156.9,1173.5 
	3134.9,1188.5 3118.9,1199.5 3012.9,1196.5 2906.9,1186.5 2860.9,1176.5 2874.9,1162.5 2928.9,1168.5 "/>
<polygon class="st15" points="1600.9,1142.5 1636.9,1146.5 1674.9,1146.5 1710.9,1162.5 1726.9,1186.5 1770.9,1204.5 1770.9,1221.5 
	1720.9,1211.5 1646.9,1173.5 1600.9,1188.5 1520.9,1168.5 1474.9,1150.5 1504.9,1136.5 1553.9,1134.5 "/>
</svg>
