<svg id="Layer_1" data-name="Layer 1" xmlns="http://www.w3.org/2000/svg" viewBox="0 0 3730 1810"><defs><style>.cls-1{fill:#353956;}.cls-2{fill:#2b2e4b;}</style></defs><title>foreground</title><polygon class="cls-1" points="3527.84 995.65 3582.48 1463.03 3525.03 1468.12 3496.35 995.19 3429.13 1013.29 3372.99 1028.42 3358.05 1032.43 3366.21 1027.65 3457.42 974.11 3424.03 965.98 3492.59 933.13 3489.1 875.42 3488.51 875.55 3410.05 891.48 3411.4 890.38 3466.39 845.36 3469.51 828.33 3426.48 839.11 3471.9 815.27 3482.07 759.65 3480.59 735.07 3480.59 735.04 3480.36 731.15 3453.3 737.91 3479.55 717.83 3478.63 702.73 3414.19 716.75 3413.13 716.98 3457.33 689.18 3474.54 639.8 3474.78 639.1 3469.99 560.1 3469 568.67 3452.32 572.84 3469.2 547.25 3463.6 454.81 3464.6 454.72 3480.06 586.98 3493.31 599 3481.81 601.87 3486.57 642.54 3505.72 685.92 3552.04 705.82 3493.47 701.67 3500.85 764.74 3511.49 792.65 3558.67 832.58 3525.06 828.26 3531.8 845.94 3597.58 889.75 3513.51 873.09 3520.37 931.7 3584.48 961.92 3551.14 970.26 3650.87 1027.96 3527.84 995.65"/><polygon class="cls-1" points="3755.24 258.31 3709.04 258.13 3725.28 345.79 3742.79 383.89 3755.24 393.08 3755.24 496.66 3753.16 496.39 3755.24 507.62 3755.24 783.95 3740.54 669.05 3648.06 700.7 3570.83 727.14 3550.28 734.17 3561.26 726.7 3684.02 643.16 3636.49 634.9 3729.47 582.47 3719.18 501.95 3718.36 502.18 3609.94 531.84 3611.72 530.18 3684.54 461.95 3687.32 437.81 3628.05 456.93 3689.45 419.29 3698.5 340.42 3694.12 306.12 3694.12 306.07 3693.43 300.65 3656.16 312.66 3691.05 282.06 3688.35 261 3599.38 286.67 3597.92 287.09 3657.25 244.01 3676.73 173.22 3677 172.22 3662.9 61.99 3662.32 74.09 3639.35 81.49 3660.6 44.06 3655.28 2.46 3661.72 2.46 3679.53 98.7 3699.21 114.3 3683.37 119.4 3693.84 175.94 3724.73 234.92 3755.24 245.68 3755.24 258.31"/><polygon class="cls-1" points="3419.08 1363.25 3466.8 1790.84 3414.25 1795.21 3390.29 1362.67 3328.74 1378.9 3277.34 1392.46 3263.67 1396.06 3271.15 1391.73 3354.8 1343.21 3324.31 1335.62 3387.15 1305.91 3384.24 1253.14 3383.7 1253.24 3311.89 1267.44 3313.12 1266.44 3363.61 1225.53 3366.55 1209.98 3327.15 1219.63 3368.8 1198.06 3378.37 1147.25 3377.13 1124.76 3377.12 1124.74 3376.93 1121.18 3352.16 1127.24 3376.25 1109 3375.49 1095.19 3316.5 1107.7 3315.53 1107.9 3356.08 1082.7 3372.05 1037.63 3372.27 1036.99 3368.27 964.74 3367.33 972.57 3352.06 976.3 3367.61 952.98 3362.93 868.44 3363.85 868.36 3377.35 989.36 3389.41 1000.41 3378.88 1002.99 3383.03 1040.2 3400.34 1079.95 3442.59 1098.37 3389.06 1094.29 3395.51 1151.99 3405.1 1177.56 3448.05 1214.3 3417.34 1210.19 3423.41 1226.38 3483.35 1266.76 3406.57 1251.12 3412.55 1304.74 3471.03 1332.68 3440.51 1340.14 3531.41 1393.38 3419.08 1363.25"/><polygon class="cls-1" points="3192.52 1166.48 3192.84 1637.04 3250.5 1635.38 3223.74 1162.34 3292.62 1172.47 3350.14 1180.93 3365.44 1183.18 3356.78 1179.38 3259.95 1136.86 3292.15 1124.88 3220.22 1100.27 3216.95 1042.55 3217.55 1042.6 3297.33 1049.26 3295.87 1048.33 3236 1010.03 3230.91 993.49 3274.91 999.16 3227.01 980.8 3210.41 926.75 3209.01 902.16 3209.01 902.13 3208.78 898.24 3236.45 901.8 3208.03 884.91 3207.18 869.81 3272.82 876.21 3273.9 876.31 3226.75 853.87 3203.89 806.83 3203.58 806.17 3199.11 727.15 3201.09 735.55 3218.13 737.74 3198.38 714.29 3193.15 621.83 3192.14 621.86 3192.24 755.02 3180.48 768.5 3192.24 770.01 3192.27 810.97 3178.31 856.29 3134.64 881.46 3192.32 870.5 3192.36 934 3185.05 962.96 3142.86 1008.12 3175.73 999.91 3171.1 1018.25 3110.89 1069.45 3192.43 1043.08 3192.47 1102.09 3132.33 1139.6 3166.41 1143.99 3074.11 1212.94 3192.52 1166.48"/><polygon class="cls-1" points="285.82 952.47 181.17 1411.24 237.74 1422.49 317.18 955.4 382.06 980.63 436.24 1001.71 450.66 1007.32 443.07 1001.68 358.15 938.63 392.22 934.14 327.59 894.11 337.28 837.11 337.85 837.29 414.14 861.58 412.92 860.35 363.1 809.66 361.83 792.4 403.45 807.75 360.86 779.16 356.73 722.76 360.86 698.49 360.86 698.46 361.51 694.62 387.68 704.25 363.75 681.46 366.29 666.55 428.85 687.42 429.88 687.76 388.92 655.37 377.13 604.42 376.97 603.7 390.24 525.67 390.3 534.3 406.43 540.24 392.4 512.98 407.93 421.68 406.94 421.49 377.33 551.31 362.86 561.83 373.99 565.93 364.88 605.86 341.16 646.92 292.98 661.71 351.65 663.9 337.52 725.8 323.94 752.4 272.73 787.02 306.61 786.35 298.01 803.2 227.89 839.67 313.26 832.16 300.13 889.69 233.14 912.83 265.39 924.72 160.03 971.34 285.82 952.47"/><polygon class="cls-1" points="525.77 1153.28 469 1593.85 523.18 1599.29 555.49 1153.19 618.75 1171.03 671.57 1185.92 685.63 1189.88 677.98 1185.28 592.48 1133.72 624.09 1126.42 559.73 1094.66 563.67 1040.22 564.22 1040.35 638.1 1056.26 636.85 1055.2 585.44 1012.09 582.68 995.99 623.18 1006.63 580.57 983.63 571.58 931.02 573.26 907.83 573.26 907.8 573.52 904.13 598.99 910.82 574.44 891.57 575.47 877.33 636.14 891.27 637.14 891.5 595.72 864.77 580.03 817.97 579.81 817.31 585.21 742.78 586.04 750.89 601.74 755.01 586.09 730.66 592.41 643.47 591.46 643.38 575.4 768.04 562.76 779.24 573.59 782.09 568.64 820.43 550.08 861.16 506.14 879.43 561.47 876.16 553.81 935.61 543.46 961.84 498.48 999.01 530.25 995.31 523.69 1011.92 461.11 1052.55 540.65 1037.74 533.53 1093 472.68 1120.81 504.05 1129.06 409.28 1182.41 525.77 1153.28"/><polygon class="cls-1" points="1292.32 1568.51 1230.75 1726.77 1279.97 1731.71 1319.33 1568.43 1376.79 1584.63 1424.78 1598.17 1437.55 1601.76 1430.61 1597.58 1352.93 1550.74 1381.64 1544.11 1323.17 1515.25 1326.75 1465.8 1327.26 1465.91 1394.38 1480.36 1393.24 1479.41 1346.54 1440.24 1344.03 1425.6 1380.82 1435.28 1342.11 1414.38 1333.94 1366.58 1335.47 1345.52 1335.47 1345.49 1335.71 1342.16 1358.84 1348.23 1336.54 1330.74 1337.47 1317.8 1392.6 1330.47 1393.5 1330.68 1355.87 1306.4 1341.62 1263.88 1341.42 1263.28 1346.32 1195.57 1347.08 1202.93 1361.34 1206.68 1347.13 1184.56 1352.86 1105.34 1352 1105.26 1337.41 1218.52 1325.93 1228.69 1335.76 1231.28 1331.27 1266.11 1314.41 1303.12 1274.49 1319.71 1324.76 1316.75 1317.79 1370.76 1308.39 1394.58 1267.53 1428.35 1296.39 1424.99 1290.43 1440.08 1233.58 1476.99 1305.84 1463.54 1299.37 1513.74 1244.09 1539.01 1272.59 1546.5 1186.49 1594.97 1292.32 1568.51"/><polygon class="cls-1" points="1105.29 1326.67 1052.06 1739.79 1102.87 1744.89 1133.17 1326.59 1192.48 1343.32 1242.01 1357.29 1255.19 1361 1248.02 1356.68 1167.85 1308.34 1197.48 1301.49 1137.14 1271.7 1140.83 1220.66 1141.35 1220.78 1210.63 1235.69 1209.45 1234.71 1161.25 1194.28 1158.66 1179.18 1196.64 1189.16 1156.68 1167.6 1148.25 1118.26 1149.83 1096.52 1149.83 1096.49 1150.07 1093.05 1173.95 1099.32 1150.93 1081.27 1151.89 1067.91 1208.79 1080.99 1209.73 1081.2 1170.88 1056.14 1156.17 1012.25 1155.97 1011.63 1161.03 941.75 1161.81 949.35 1176.53 953.22 1161.86 930.39 1167.78 848.63 1166.89 848.54 1151.83 965.44 1139.98 975.94 1150.13 978.61 1145.5 1014.56 1128.09 1052.76 1086.89 1069.88 1138.77 1066.82 1131.58 1122.57 1121.88 1147.16 1079.7 1182.01 1109.49 1178.54 1103.35 1194.12 1044.67 1232.21 1119.25 1218.34 1112.57 1270.15 1055.51 1296.23 1084.93 1303.96 996.06 1353.99 1105.29 1326.67"/><polygon class="cls-1" points="805.9 1338.9 718.91 1746.25 769.13 1755.51 833.69 1341.11 891.42 1362.65 939.64 1380.64 952.47 1385.42 945.68 1380.53 869.75 1325.77 899.85 1321.38 842.15 1286.73 850.03 1236.17 850.54 1236.32 918.35 1256.88 917.26 1255.8 872.54 1211.56 871.21 1196.29 908.23 1209.36 870.19 1184.59 865.84 1134.72 869.19 1113.18 869.19 1113.15 869.72 1109.75 893 1117.95 871.54 1098.07 873.6 1084.84 929.23 1102.55 930.15 1102.84 893.5 1074.67 882.44 1029.72 882.28 1029.09 893.07 959.86 893.23 967.5 907.58 972.56 894.83 948.6 907.45 867.6 906.57 867.44 881.96 982.71 869.28 992.21 879.18 995.7 871.61 1031.14 851.12 1067.78 808.65 1081.47 860.61 1082.68 848.87 1137.65 837.17 1161.36 792.28 1192.63 822.26 1191.62 814.85 1206.63 753.24 1239.78 828.71 1232.08 817.8 1283.16 758.78 1304.47 787.47 1314.59 694.79 1357.15 805.9 1338.9"/><polygon class="cls-1" points="610.91 1521.38 526.93 1724.1 567.33 1731.55 633.27 1523.15 679.72 1540.48 718.51 1554.96 728.83 1558.81 723.37 1554.87 662.28 1510.81 686.5 1507.28 640.08 1479.41 646.41 1438.73 646.83 1438.85 701.38 1455.39 700.51 1454.53 664.53 1418.93 663.45 1406.65 693.24 1417.16 662.63 1397.23 659.13 1357.11 661.83 1339.78 661.84 1339.76 662.26 1337.02 680.99 1343.63 663.72 1327.63 665.38 1316.99 710.13 1331.23 710.87 1331.47 681.39 1308.81 672.49 1272.64 672.37 1272.13 681.04 1216.44 681.17 1222.58 692.71 1226.65 682.46 1207.38 692.61 1142.21 691.9 1142.08 672.1 1234.82 661.91 1242.46 669.87 1245.27 663.78 1273.79 647.3 1303.26 613.13 1314.27 654.93 1315.24 645.48 1359.47 636.08 1378.54 599.95 1403.7 624.07 1402.89 618.11 1414.97 568.55 1441.64 629.26 1435.44 620.48 1476.54 573.01 1493.68 596.09 1501.82 521.53 1536.06 610.91 1521.38"/><polygon class="cls-1" points="2685.14 1401.85 2709.99 1727.62 2749.82 1723.45 2706.54 1397.35 2754.75 1400.76 2795.02 1403.61 2805.73 1404.36 2799.54 1402.19 2730.27 1377.82 2751.94 1367.84 2700.85 1354.56 2695.57 1314.77 2695.99 1314.78 2751.57 1315.21 2750.51 1314.65 2707.05 1291.27 2702.66 1280.08 2733.42 1281.7 2699.3 1271.5 2684.98 1234.94 2682.73 1217.99 2682.72 1217.97 2682.36 1215.29 2701.7 1216.31 2681.14 1206.11 2679.76 1195.69 2725.54 1196.69 2726.3 1196.7 2692.48 1183.63 2674.19 1152.26 2673.94 1151.82 2666.71 1097.35 2668.52 1103.06 2680.44 1103.68 2665.54 1088.48 2657.08 1024.74 2656.38 1024.82 2663.41 1117 2655.98 1126.95 2664.2 1127.38 2666.36 1155.73 2659.07 1187.84 2630.15 1207.55 2669.51 1196.95 2672.86 1240.91 2669.32 1261.34 2642.47 1294.82 2664.8 1287.41 2662.56 1300.35 2623.55 1338.95 2678.62 1316.42 2681.74 1357.28 2642.06 1386.39 2665.89 1387.64 2605.59 1440.21 2685.14 1401.85"/><polygon class="cls-1" points="85.88 1281.89 -1.41 1689.17 48.8 1698.47 113.66 1284.12 171.39 1305.7 219.59 1323.73 232.42 1328.52 225.63 1323.62 149.74 1268.8 179.84 1264.43 122.17 1229.75 130.08 1179.19 130.59 1179.34 198.39 1199.95 197.3 1198.87 152.62 1154.59 151.29 1139.32 188.31 1152.42 150.28 1127.62 145.97 1077.75 149.34 1056.21 149.34 1056.19 149.87 1052.78 173.15 1061.01 151.7 1041.11 153.77 1027.88 209.38 1045.63 210.3 1045.92 173.67 1017.73 162.64 972.77 162.49 972.13 173.33 902.91 173.48 910.55 187.82 915.62 175.09 891.65 187.77 810.66 186.89 810.5 162.2 925.76 149.52 935.24 159.41 938.74 151.81 974.18 131.3 1010.8 88.82 1024.46 140.78 1025.71 129 1080.67 117.28 1104.37 72.36 1135.61 102.34 1134.62 94.93 1149.63 33.29 1182.73 108.77 1175.08 97.82 1226.16 38.79 1247.42 67.47 1257.57 -25.24 1300.06 85.88 1281.89"/><polygon class="cls-1" points="339.46 1467.83 311.35 1681.35 364.13 1688.64 368.53 1468.82 429.74 1488.56 480.85 1505.05 494.45 1509.43 487.14 1504.65 405.4 1451.13 436.57 1445.13 374.8 1411.73 380.63 1358.64 381.17 1358.78 452.83 1377.03 451.64 1375.95 402.94 1331.93 400.83 1316.08 440.05 1327.96 399.22 1303.92 392.34 1252.14 394.82 1229.53 394.82 1229.5 395.21 1225.92 419.87 1233.39 396.56 1213.67 398.09 1199.78 456.91 1215.63 457.88 1215.88 418.35 1188.24 404.71 1141.9 404.52 1141.25 412.51 1068.57 413.03 1076.52 428.23 1081.13 413.81 1056.75 423.16 971.71 422.23 971.59 402 1092.91 389.23 1103.41 399.71 1106.58 393.49 1143.89 373.85 1183.05 330.22 1199.32 384.44 1198.13 374.79 1255.99 363.71 1281.26 318.38 1315.97 349.58 1313.51 342.57 1329.51 279.89 1366.97 358.21 1355.38 349.24 1409.16 288.72 1434.14 319.1 1443.35 224.48 1492.08 339.46 1467.83"/><polygon class="cls-1" points="279.5 765.41 257.14 756.64 173.1 723.64 72.45 684.15 0.05 1102.13 0.05 782.03 23.78 679.46 0.05 682.93 0.05 597.85 46.3 582.03 66.95 492.75 0.05 498.43 0.05 470.09 43.41 447.7 56.84 421.58 4.23 422.46 83.91 368.95 105.14 327.7 127.36 231.64 36.27 227.96 111.17 205.22 148.19 141.57 162.52 79.61 145.27 73.2 167.78 56.92 180.38 2.46 193.92 2.46 213.02 39.87 188 30.57 187.96 17.17 166.98 138.28 167.23 139.4 185.29 218.56 248.74 269.07 247.14 268.54 150.08 235.82 146.08 258.96 183.14 294.47 142.53 279.38 141.51 285.34 141.51 285.39 134.99 323.08 141.14 410.68 207.14 455.26 142.57 431.24 144.46 458.04 221.59 536.99 223.47 538.92 105.12 500.84 104.24 500.54 88.93 589.01 189.09 651.5 136.17 658.31 267.73 756.62 279.5 765.41"/><polygon class="cls-2" points="3754.24 1234.21 3754.24 1807.46 -5.76 1807.46 -5.76 935.7 27.65 945.09 64.71 994.76 148.93 1107.65 155.27 1116.15 217.34 1135.76 409.23 1305.16 487.96 1280.48 581 1345.66 592.98 1396.71 593.44 1398.66 666.94 1409.38 795.44 1438.28 830.27 1445.4 893.24 1458.28 894.32 1458.5 935.71 1466.97 980.86 1407.22 1107.9 1386.73 1168.9 1459.43 1284.16 1479.01 1367 1496.86 1458.35 1497.2 1653.9 1557.44 1658.77 1558.94 1801.64 1562.71 1835.61 1557.44 1862.82 1553.22 2028.42 1542.13 2059.06 1557.44 2075.1 1565.46 2108.82 1582.31 2221.43 1579.5 2249.58 1565.46 2265.65 1557.44 2310.72 1534.96 2413.59 1551.88 2419.73 1552.89 2431.34 1557.44 2451.81 1565.46 2464.39 1570.39 2473.95 1565.46 2489.49 1557.44 2530.74 1536.16 2691.47 1472.57 2934.74 1436.46 3112.75 1411.97 3363.48 1330.63 3545.12 1285.81 3607.18 1298.13 3644.24 1261.34 3754.24 1234.21"/></svg>